<svg width="83" height="31" viewBox="0 0 83 31" fill="none" xmlns="http://www.w3.org/2000/svg">
<path d="M0.268 24V0.239999H9.916C12.82 0.239999 15.1 0.755999 16.756 1.788C18.412 2.796 19.24 4.38 19.24 6.54C19.24 7.932 18.796 9.084 17.908 9.996C17.02 10.884 15.544 11.436 13.48 11.652V12.12C15.808 12.264 17.512 12.828 18.592 13.812C19.672 14.796 20.212 16.116 20.212 17.772C20.212 19.812 19.408 21.36 17.8 22.416C16.216 23.472 13.888 24 10.816 24H0.268ZM5.272 10.284H8.908C9.772 10.284 10.6 10.212 11.392 10.068C12.208 9.924 12.868 9.636 13.372 9.204C13.9 8.748 14.164 8.1 14.164 7.26C14.164 6.444 13.924 5.832 13.444 5.424C12.988 5.016 12.4 4.74 11.68 4.596C10.984 4.452 10.288 4.38 9.592 4.38H5.272V10.284ZM5.272 19.824H10.708C11.356 19.824 12.016 19.752 12.688 19.608C13.36 19.464 13.936 19.188 14.416 18.78C14.896 18.372 15.136 17.76 15.136 16.944C15.136 16.032 14.848 15.348 14.272 14.892C13.72 14.412 13.024 14.088 12.184 13.92C11.344 13.752 10.492 13.668 9.628 13.668H5.272V19.824ZM32.3907 24.504C29.1747 24.504 26.7507 23.628 25.1187 21.876C23.5107 20.124 22.7067 17.796 22.7067 14.892C22.7067 12.948 23.0547 11.208 23.7507 9.672C24.4707 8.112 25.5267 6.876 26.9187 5.964C28.3107 5.052 30.0147 4.596 32.0307 4.596C35.0067 4.596 37.2387 5.568 38.7267 7.512C40.2387 9.432 40.8387 12.072 40.5267 15.432L27.7107 15.54C27.8307 17.292 28.2987 18.588 29.1147 19.428C29.9547 20.244 31.0587 20.652 32.4267 20.652C33.7707 20.652 34.7067 20.328 35.2347 19.68C35.7867 19.008 36.1107 18.264 36.2067 17.448L40.8147 18.204C40.6707 19.332 40.2867 20.376 39.6627 21.336C39.0627 22.296 38.1627 23.064 36.9627 23.64C35.7867 24.216 34.2627 24.504 32.3907 24.504ZM32.0667 8.664C30.9627 8.664 30.0507 9.024 29.3307 9.744C28.6107 10.44 28.1307 11.424 27.8907 12.696L35.8107 12.588C35.7387 11.268 35.3547 10.284 34.6587 9.636C33.9867 8.988 33.1227 8.664 32.0667 8.664ZM51.379 30.228C48.235 30.228 45.979 29.868 44.611 29.148C43.267 28.452 42.595 27.444 42.595 26.124C42.595 25.044 43.027 24.168 43.891 23.496C44.755 22.8 46.027 22.368 47.707 22.2V21.66C46.435 21.66 45.451 21.504 44.755 21.192C44.059 20.88 43.711 20.364 43.711 19.644C43.711 18.972 44.035 18.372 44.683 17.844C45.355 17.316 46.471 16.932 48.031 16.692V16.152C46.591 15.984 45.463 15.468 44.647 14.604C43.831 13.716 43.423 12.588 43.423 11.22C43.423 9.42 44.155 7.932 45.619 6.756C47.107 5.556 49.255 4.956 52.063 4.956H61.567V8.952L55.447 8.124V8.772C57.103 9.012 58.279 9.432 58.975 10.032C59.671 10.608 60.019 11.376 60.019 12.336C60.019 13.776 59.335 14.952 57.967 15.864C56.623 16.776 54.691 17.232 52.171 17.232C51.787 17.232 51.391 17.22 50.983 17.196C50.599 17.148 50.059 17.088 49.363 17.016C48.355 17.616 47.851 18.108 47.851 18.492C47.851 18.732 48.031 18.9 48.391 18.996C48.751 19.092 49.159 19.14 49.615 19.14H55.159C55.615 19.14 56.227 19.176 56.995 19.248C57.763 19.296 58.531 19.476 59.299 19.788C60.067 20.076 60.703 20.568 61.207 21.264C61.735 21.936 61.999 22.896 61.999 24.144C61.999 26.232 61.123 27.768 59.371 28.752C57.643 29.736 54.979 30.228 51.379 30.228ZM51.919 14.46C52.975 14.46 53.779 14.184 54.331 13.632C54.883 13.08 55.159 12.36 55.159 11.472C55.159 10.512 54.871 9.732 54.295 9.132C53.743 8.532 52.939 8.232 51.883 8.232C50.851 8.232 50.035 8.532 49.435 9.132C48.859 9.732 48.571 10.5 48.571 11.436C48.571 12.324 48.859 13.056 49.435 13.632C50.011 14.184 50.839 14.46 51.919 14.46ZM51.739 25.944C53.275 25.944 54.451 25.872 55.267 25.728C56.107 25.584 56.683 25.356 56.995 25.044C57.331 24.756 57.499 24.384 57.499 23.928C57.499 23.328 57.319 22.908 56.959 22.668C56.599 22.404 56.179 22.248 55.699 22.2C55.243 22.152 54.859 22.128 54.547 22.128H49.939C48.979 22.296 48.295 22.572 47.887 22.956C47.479 23.316 47.275 23.748 47.275 24.252C47.275 24.972 47.659 25.428 48.427 25.62C49.195 25.836 50.299 25.944 51.739 25.944ZM72.3673 30.228C69.2233 30.228 66.9673 29.868 65.5993 29.148C64.2553 28.452 63.5833 27.444 63.5833 26.124C63.5833 25.044 64.0153 24.168 64.8793 23.496C65.7433 22.8 67.0153 22.368 68.6953 22.2V21.66C67.4233 21.66 66.4393 21.504 65.7433 21.192C65.0473 20.88 64.6993 20.364 64.6993 19.644C64.6993 18.972 65.0233 18.372 65.6713 17.844C66.3433 17.316 67.4593 16.932 69.0193 16.692V16.152C67.5793 15.984 66.4513 15.468 65.6353 14.604C64.8193 13.716 64.4113 12.588 64.4113 11.22C64.4113 9.42 65.1433 7.932 66.6073 6.756C68.0953 5.556 70.2433 4.956 73.0513 4.956H82.5553V8.952L76.4353 8.124V8.772C78.0913 9.012 79.2673 9.432 79.9633 10.032C80.6593 10.608 81.0073 11.376 81.0073 12.336C81.0073 13.776 80.3233 14.952 78.9553 15.864C77.6113 16.776 75.6793 17.232 73.1593 17.232C72.7753 17.232 72.3793 17.22 71.9713 17.196C71.5873 17.148 71.0473 17.088 70.3513 17.016C69.3433 17.616 68.8393 18.108 68.8393 18.492C68.8393 18.732 69.0193 18.9 69.3793 18.996C69.7393 19.092 70.1473 19.14 70.6033 19.14H76.1473C76.6033 19.14 77.2153 19.176 77.9833 19.248C78.7513 19.296 79.5193 19.476 80.2873 19.788C81.0553 20.076 81.6913 20.568 82.1953 21.264C82.7233 21.936 82.9873 22.896 82.9873 24.144C82.9873 26.232 82.1113 27.768 80.3593 28.752C78.6313 29.736 75.9673 30.228 72.3673 30.228ZM72.9073 14.46C73.9633 14.46 74.7673 14.184 75.3193 13.632C75.8713 13.08 76.1473 12.36 76.1473 11.472C76.1473 10.512 75.8593 9.732 75.2833 9.132C74.7313 8.532 73.9273 8.232 72.8713 8.232C71.8393 8.232 71.0233 8.532 70.4233 9.132C69.8473 9.732 69.5593 10.5 69.5593 11.436C69.5593 12.324 69.8473 13.056 70.4233 13.632C70.9993 14.184 71.8273 14.46 72.9073 14.46ZM72.7273 25.944C74.2633 25.944 75.4393 25.872 76.2553 25.728C77.0953 25.584 77.6713 25.356 77.9833 25.044C78.3193 24.756 78.4873 24.384 78.4873 23.928C78.4873 23.328 78.3073 22.908 77.9473 22.668C77.5873 22.404 77.1673 22.248 76.6873 22.2C76.2313 22.152 75.8473 22.128 75.5353 22.128H70.9273C69.9673 22.296 69.2833 22.572 68.8753 22.956C68.4673 23.316 68.2633 23.748 68.2633 24.252C68.2633 24.972 68.6473 25.428 69.4153 25.62C70.1833 25.836 71.2873 25.944 72.7273 25.944Z" fill="#43B443"/>
</svg>
