<svg width="215" height="204" viewBox="0 0 215 204" fill="none" xmlns="http://www.w3.org/2000/svg">
<path d="M83.1733 94.3934C83.1733 115.361 66.1353 132.385 45.0866 132.385C24.038 132.385 7 115.361 7 94.3934C7 73.4254 24.038 56.4022 45.0866 56.4022C66.1353 56.4022 83.1733 73.4254 83.1733 94.3934Z" stroke="white" stroke-width="14"/>
<path d="M79.4054 157.028C79.4054 167.557 75.214 177.654 67.7534 185.099C60.2928 192.544 50.174 196.727 39.623 196.727C29.0721 196.727 18.9533 192.544 11.4927 185.099" stroke="white" stroke-width="14"/>
<path d="M192.564 157.028C192.564 167.557 188.373 177.654 180.912 185.099C173.451 192.544 163.333 196.727 152.782 196.727C142.231 196.727 132.112 192.544 124.651 185.099" stroke="white" stroke-width="14"/>
<rect width="12.3767" height="97.9222" rx="6.18836" fill="white"/>
<path d="M207.353 79.1463C203.888 70.8343 197.695 63.9444 189.789 59.6069C181.884 55.2694 172.736 53.7421 163.846 55.2754C154.956 56.8087 146.853 61.3117 140.865 68.0455C134.877 74.7792 131.361 83.3439 130.893 92.3343C130.425 101.325 133.033 110.207 138.29 117.523C143.546 124.84 151.139 130.156 159.821 132.601C168.504 135.045 177.761 134.471 186.075 130.975C194.388 127.478 201.263 121.265 205.572 113.356" stroke="white" stroke-width="14" stroke-linecap="round"/>
<rect width="12.3523" height="56.992" rx="6.17615" transform="matrix(0.259331 0.965789 -0.966063 0.258308 211.797 74.6147)" fill="white"/>
</svg>
